# xmcd
#
# Track frame offsets:
#	150
#	12115
#	24030
#	37475
#	50470
#	63545
#	71732
#	84590
#	97940
#	113017
#	126092
#	138110
#	148762
#	161255
#	175187
#	187382
#	199972
#	211705
#	229362
#	239575
#
# Disc length: 3374 seconds
#
# Revision: 2
# Processed by: cddbd v1.5.1PL0 Copyright (c) Steve Scherf et al.
# Submitted via: audiograbber 1.83.01
#
DISCID=1e0d2c14
DTITLE=Various Artist - Sweet soul music
DYEAR=2001
DGENRE=Soul
TTITLE0=Drifters - Under The Boardwalk
TTITLE1=Sam and Dave - Soul Man
TTITLE2=Eddie Floyd - Knock On Wood
TTITLE3=Bob and Earl - Harlem Shuffle
TTITLE4=Lloyd Price - Stagger Lee
TTITLE5=Maurice Williams and The Zodiacs - Stay
TTITLE6=Coasters - Poison Ivy
TTITLE7=Ben E King - Spanish Harlem
TTITLE8=Percy Sledge - Warm Kind Tender Love
TTITLE9=Mary Wells - My Guy
TTITLE10=Tommy Edwards - Please Love Me Forever
TTITLE11=Little Esther Phillips - Wild Child
TTITLE12=Supremes - Baby Love
TTITLE13=Martha Reeves and The Vandellas - Heatwave
TTITLE14=Brook Benton - Kiddio
TTITLE15=Kim Weston - Dancing in the Street
TTITLE16=Ike and Tina Turner - Somebody (Somewhere) Needs You
TTITLE17=Marvin Gaye - I Heard It Through The Grapevine
TTITLE18=James Brown - I Got You (I Feel Good)
TTITLE19=Junior Walker - Shotgun
EXTD=
EXTT0=
EXTT1=
EXTT2=
EXTT3=
EXTT4=
EXTT5=
EXTT6=
EXTT7=
EXTT8=
EXTT9=
EXTT10=
EXTT11=
EXTT12=
EXTT13=
EXTT14=
EXTT15=
EXTT16=
EXTT17=
EXTT18=
EXTT19=
PLAYORDER=
